<svg xmlns="http://www.w3.org/2000/svg" xmlns:xlink="http://www.w3.org/1999/xlink" viewBox="0 0 127.97 106.37"><defs><style>.cls-1{fill:none;}.cls-2{clip-path:url(#clip-path);}</style><clipPath id="clip-path" transform="translate(0 -0.01)"><rect class="cls-1" x="0.44" width="128" height="107"/></clipPath></defs><title>order</title><g id="Layer_2" data-name="Layer 2"><g id="Isolation_Mode" data-name="Isolation Mode"><g class="cls-2"><path d="M128,90.66H112.5c-.72-1.81-.33-3.5-.4-5.14s0-3.35,0-5.26l5.18-.29V10.74H11c-.55,2-.8,62.89-.25,69.24,2.38.26,4.83.09,7.28.12s5.15,0,7.73,0h38V90.54H3.19c-1.06,0-2.13.07-3.19.11V0C1,0,1.95.12,2.92.12H125.05C126,.12,127,0,128,0Z" transform="translate(0 -0.01)"/><path d="M94.81,69.51h6c.59,2.16.81,27.2.32,36.81-4.45-2.4-8.5-5.15-13-7.68l-13.14,7.74V69.59c3-.08,5.81-.7,8.61,1.26,2.57,1.8,5.55,1.63,8.39.31C92.89,70.71,93.78,70.1,94.81,69.51Z" transform="translate(0 -0.01)"/><path d="M106.53,41a19.29,19.29,0,0,1-.62,2.29,5.88,5.88,0,0,0,0,4.14c1.12,3.5.88,4.19-2,6.28a7.08,7.08,0,0,0-2.78,3.74c-.93,3-1.93,3.66-5,3.65a7.73,7.73,0,0,0-5.16,1.69,4.24,4.24,0,0,1-5.83,0,8,8,0,0,0-5.43-1.7c-2.8,0-3.9-.75-4.7-3.38a7.58,7.58,0,0,0-3.08-4.16c-2.57-1.81-2.91-2.73-1.94-5.6a7.69,7.69,0,0,0,0-5.17c-1-2.89-.64-3.8,1.92-5.61A7.58,7.58,0,0,0,74.94,33c.81-2.66,1.87-3.43,4.69-3.38a8.51,8.51,0,0,0,5.65-1.85,4.07,4.07,0,0,1,5.39,0,8.52,8.52,0,0,0,5.65,1.86c2.83-.05,3.9.71,4.69,3.36a7.33,7.33,0,0,0,3.31,4.3A4.16,4.16,0,0,1,106.53,41ZM96,45.46a8.06,8.06,0,1,0-8.25,7.93A8.12,8.12,0,0,0,96,45.46Z" transform="translate(0 -0.01)"/><path d="M58.41,26.93V31.5c-1.94.48-32.87.63-36.8.17V26.93Z" transform="translate(0 -0.01)"/><path d="M58.43,47.74H21.58V43.18c1.9-.5,32.39-.67,36.8-.19.05.73.14,1.49.15,2.26S58.47,46.81,58.43,47.74Z" transform="translate(0 -0.01)"/><path d="M42.41,58.93v4.56c-1.91.49-16.86.63-20.79.18V58.93Z" transform="translate(0 -0.01)"/></g></g></g></svg>