<svg xmlns="http://www.w3.org/2000/svg" viewBox="0 0 136.85 136.85"><defs><style>.cls-1{fill:#fff;}.cls-1,.cls-2{stroke:#0080f0;stroke-width:8.55px;}.cls-2{fill:none;stroke-miterlimit:10;}</style></defs><title>sign-in</title><g id="Layer_2" data-name="Layer 2"><g id="Isolation_Mode" data-name="Isolation Mode"><path class="cls-1" d="M132.58,68.43a64.14,64.14,0,1,1-1.23-12.52A64,64,0,0,1,132.58,68.43Z"/><path class="cls-2" d="M17.11,106.92c3.51-8.64,18.3-15,35.92-15.4a4.06,4.06,0,0,0,3.16-.86,4,4,0,0,0,1.33-3,25.65,25.65,0,0,0-8.34-21.81c-1.54,0-2.82-3.16-2.82-7.06s1.28-7.06,2.82-7.06A20.5,20.5,0,0,1,68.43,28.65,20.5,20.5,0,0,1,87.67,51.75c1.54,0,2.82,3.16,2.82,7.06s-1.28,7.06-2.82,7.06a25.65,25.65,0,0,0-8.34,21.81,4,4,0,0,0,1.33,3,4.06,4.06,0,0,0,3.16.86c17.62.43,32.42,6.76,35.92,15.4"/></g></g></svg>